<?xml version="1.0" encoding="iso-8859-1"?>
<!-- Generator: Adobe Illustrator 21.1.0, SVG Export Plug-In . SVG Version: 6.00 Build 0)  -->
<svg fill='white' version="1.1" id="Layer_1" xmlns="http://www.w3.org/2000/svg" xmlns:xlink="http://www.w3.org/1999/xlink" x="0px" y="0px"
	 viewBox="0 0 24 24" enable-background="new 0 0 24 24" xml:space="preserve">
<g>
	<path fill='white' d="M19.5,10c-0.5452881,0-1.0615845,0.1121826-1.5457153,0.2906494l-1.5040894-3.0079346
		c-0.0003662-0.0007324-0.0013428-0.0010986-0.001709-0.0018311c-0.0007324-0.0014648-0.0004883-0.0030518-0.0012207-0.0045166
		L15.8085938,6H18.5C18.7753906,6,19,6.2241211,19,6.5S18.7753906,7,18.5,7H18c-0.2763672,0-0.5,0.2236328-0.5,0.5
		S17.7236328,8,18,8h0.5C19.3271484,8,20,7.3271484,20,6.5S19.3271484,5,18.5,5H15
		c-0.1728516,0-0.3339844,0.0898438-0.4257813,0.2373047c-0.0908203,0.1474609-0.0986328,0.331543-0.0214844,0.4863281L15.190918,7
		H9.7799072L9.5167236,6H10.5C10.7763672,6,11,5.7763672,11,5.5S10.7763672,5,10.5,5H7C6.7236328,5,6.5,5.2236328,6.5,5.5
		S6.7236328,6,7,6h1.4827881l0.3692017,1.40271l-2.2119141,3.1634521C6.0006714,10.2167358,5.2786865,10,4.5,10
		C2.0185547,10,0,12.0185547,0,14.5S2.0185547,19,4.5,19c2.0906372,0,3.8370972-1.4395142,4.34021-3.3748169l1.1896362,0.1699829
		C10.1673584,16.4813232,10.7739258,17,11.5,17c0.8271484,0,1.5-0.6728516,1.5-1.5
		c0-0.3768311-0.1444092-0.7174683-0.3746948-0.9812012l3.3483276-5.9528809l1.0827026,2.1652222
		C15.8217773,11.5343018,15,12.9204102,15,14.5c0,2.4814453,2.0185547,4.5,4.5,4.5s4.5-2.0185547,4.5-4.5S21.9814453,10,19.5,10z
		 M4.5,18C2.5703125,18,1,16.4296875,1,14.5S2.5703125,11,4.5,11c0.5656738,0,1.0927124,0.147644,1.5661011,0.3870239
		l-1.9762573,2.826355c-0.0996094,0.1425781-0.1171875,0.3261719-0.0488281,0.4858398
		c0.0693359,0.1591797,0.2167969,0.2709961,0.3886719,0.2958984l3.4125366,0.4874878C7.4143066,16.9321899,6.0862427,18,4.5,18z
		 M7.9994507,14.494812l-2.6234741-0.3746948l1.5128784-2.1636963C7.567627,12.5941772,7.9979248,13.4926147,7.9994507,14.494812z
		 M7.4609985,11.1382446l1.7248535-2.4669189l1.4710693,5.5893555c-0.2023315,0.1380615-0.3637695,0.3275146-0.4786987,0.5452881
		l-1.1919556-0.1702271C8.9876709,14.5895996,9,14.5465088,9,14.5C9,13.1570435,8.3968506,11.9634399,7.4609985,11.1382446z
		 M11.7269287,15.9387207c-0.0223389,0.0115967-0.0443726,0.0209961-0.0684814,0.0292358
		c0.0176392-0.0060425,0.0323486-0.0161743,0.0488281-0.0239258C11.713501,15.9411621,11.7208252,15.9418335,11.7269287,15.9387207z
		 M11.8272095,15.8710327c0.0235596-0.020874,0.0424805-0.0454712,0.0615845-0.0701294
		C11.8693848,15.8259888,11.8509521,15.8500366,11.8272095,15.8710327z M11.7559204,14.0258789
		c-0.0426025-0.0073853-0.0866699-0.0094604-0.1304321-0.0131836L10.0430908,8h5.102417L11.7559204,14.0258789z M19.5,18
		c-1.9296875,0-3.5-1.5703125-3.5-3.5c0-1.1881104,0.5980835-2.2365723,1.5060425-2.8695679l1.5466919,3.0932007
		c0.1240234,0.2470703,0.4228516,0.3457031,0.6708984,0.2236328c0.2470703-0.1235352,0.3466797-0.4238281,0.2236328-0.6708984
		l-1.5419312-3.0836792C18.7518311,11.0775146,19.1154175,11,19.5,11c1.9296875,0,3.5,1.5703125,3.5,3.5S21.4296875,18,19.5,18z"/>
	<linearGradient id="SVGID_1_" gradientUnits="userSpaceOnUse" x1="2.5702217" y1="7.990972" x2="23.0475502" y2="17.5397072">
		<stop  offset="0" style="stop-color:#FFFFFF;stop-opacity:0.2"/>
		<stop  offset="1" style="stop-color:#FFFFFF;stop-opacity:0"/>
	</linearGradient>
	<path fill='white' d="M19.5,10c-0.5452881,0-1.0615845,0.1121826-1.5457153,0.2906494l-1.5040894-3.0079346
		c-0.0003662-0.0007324-0.0013428-0.0010986-0.001709-0.0018311c-0.0007324-0.0014648-0.0004883-0.0030518-0.0012207-0.0045166
		L15.8085938,6H18.5C18.7753906,6,19,6.2241211,19,6.5S18.7753906,7,18.5,7H18c-0.2763672,0-0.5,0.2236328-0.5,0.5
		S17.7236328,8,18,8h0.5C19.3271484,8,20,7.3271484,20,6.5S19.3271484,5,18.5,5H15
		c-0.1728516,0-0.3339844,0.0898438-0.4257813,0.2373047c-0.0908203,0.1474609-0.0986328,0.331543-0.0214844,0.4863281L15.190918,7
		H9.7799072L9.5167236,6H10.5C10.7763672,6,11,5.7763672,11,5.5S10.7763672,5,10.5,5H7C6.7236328,5,6.5,5.2236328,6.5,5.5
		S6.7236328,6,7,6h1.4827881l0.3692017,1.40271l-2.2119141,3.1634521C6.0006714,10.2167358,5.2786865,10,4.5,10
		C2.0185547,10,0,12.0185547,0,14.5S2.0185547,19,4.5,19c2.0906372,0,3.8370972-1.4395142,4.34021-3.3748169l1.1896362,0.1699829
		C10.1673584,16.4813232,10.7739258,17,11.5,17c0.8271484,0,1.5-0.6728516,1.5-1.5
		c0-0.3768311-0.1444092-0.7174683-0.3746948-0.9812012l3.3483276-5.9528809l1.0827026,2.1652222
		C15.8217773,11.5343018,15,12.9204102,15,14.5c0,2.4814453,2.0185547,4.5,4.5,4.5s4.5-2.0185547,4.5-4.5S21.9814453,10,19.5,10z
		 M4.5,18C2.5703125,18,1,16.4296875,1,14.5S2.5703125,11,4.5,11c0.5656738,0,1.0927124,0.147644,1.5661011,0.3870239
		l-1.9762573,2.826355c-0.0996094,0.1425781-0.1171875,0.3261719-0.0488281,0.4858398
		c0.0693359,0.1591797,0.2167969,0.2709961,0.3886719,0.2958984l3.4125366,0.4874878C7.4143066,16.9321899,6.0862427,18,4.5,18z
		 M7.9994507,14.494812l-2.6234741-0.3746948l1.5128784-2.1636963C7.567627,12.5941772,7.9979248,13.4926147,7.9994507,14.494812z
		 M7.4609985,11.1382446l1.7248535-2.4669189l1.4710693,5.5893555c-0.2023315,0.1380615-0.3637695,0.3275146-0.4786987,0.5452881
		l-1.1919556-0.1702271C8.9876709,14.5895996,9,14.5465088,9,14.5C9,13.1570435,8.3968506,11.9634399,7.4609985,11.1382446z
		 M11.7269287,15.9387207c-0.0223389,0.0115967-0.0443726,0.0209961-0.0684814,0.0292358
		c0.0176392-0.0060425,0.0323486-0.0161743,0.0488281-0.0239258C11.713501,15.9411621,11.7208252,15.9418335,11.7269287,15.9387207z
		 M11.8272095,15.8710327c0.0235596-0.020874,0.0424805-0.0454712,0.0615845-0.0701294
		C11.8693848,15.8259888,11.8509521,15.8500366,11.8272095,15.8710327z M11.7559204,14.0258789
		c-0.0426025-0.0073853-0.0866699-0.0094604-0.1304321-0.0131836L10.0430908,8h5.102417L11.7559204,14.0258789z M19.5,18
		c-1.9296875,0-3.5-1.5703125-3.5-3.5c0-1.1881104,0.5980835-2.2365723,1.5060425-2.8695679l1.5466919,3.0932007
		c0.1240234,0.2470703,0.4228516,0.3457031,0.6708984,0.2236328c0.2470703-0.1235352,0.3466797-0.4238281,0.2236328-0.6708984
		l-1.5419312-3.0836792C18.7518311,11.0775146,19.1154175,11,19.5,11c1.9296875,0,3.5,1.5703125,3.5,3.5S21.4296875,18,19.5,18z"/>
</g>
<g>
</g>
<g>
</g>
<g>
</g>
<g>
</g>
<g>
</g>
<g>
</g>
<g>
</g>
<g>
</g>
<g>
</g>
<g>
</g>
<g>
</g>
<g>
</g>
<g>
</g>
<g>
</g>
<g>
</g>
</svg>
