<?xml version="1.0" encoding="utf-8"?>
<!-- Svg Vector Icons : http://www.onlinewebfonts.com/icon -->
<!DOCTYPE svg PUBLIC "-//W3C//DTD SVG 1.1//EN" "http://www.w3.org/Graphics/SVG/1.1/DTD/svg11.dtd">
<svg fill='white' version="1.1" xmlns="http://www.w3.org/2000/svg" xmlns:xlink="http://www.w3.org/1999/xlink" x="0px" y="0px" viewBox="0 0 1000 1000" enable-background="new 0 0 1000 1000" xml:space="preserve">
<metadata> Svg Vector Icons : http://www.onlinewebfonts.com/icon </metadata>
<g><path d="M923.1,255h-163l-57.4-120.9c-3.7-7.7-11.5-12.7-20.1-12.7H317.4c-8.6,0-16.4,4.9-20.1,12.7L239.8,255h-163C40,255,10,285,10,321.8v489.9c0,36.9,30,66.8,66.8,66.8h846.4c36.9,0,66.8-30,66.8-66.8V321.8C989.9,285,959.9,255,923.1,255z M945.4,811.9c0,12.3-10,22.2-22.2,22.2H76.8c-12.3,0-22.2-10-22.2-22.2V321.9c0-12.3,10-22.2,22.2-22.2h177.1c8.6,0,16.4-4.9,20.1-12.7l57.4-120.9h337.1L726,287c3.7,7.7,11.5,12.7,20.1,12.7h177.1c12.3,0,22.2,10,22.2,22.2V811.9z M499.9,344.2c-110.6,0-200.4,89.9-200.4,200.4c0,110.6,89.9,200.4,200.4,200.4s200.4-89.9,200.4-200.4C700.4,434.1,610.5,344.2,499.9,344.2z M499.9,700.5c-85.9,0-155.9-69.9-155.9-155.9c0-85.9,69.9-155.9,155.9-155.9c85.9,0,155.9,69.9,155.9,155.9C655.8,630.6,585.9,700.5,499.9,700.5z"/></g>
</svg>