<?xml version="1.0" encoding="utf-8"?>
<!-- Svg Vector Icons : http://www.onlinewebfonts.com/icon -->
<!DOCTYPE svg PUBLIC "-//W3C//DTD SVG 1.1//EN" "http://www.w3.org/Graphics/SVG/1.1/DTD/svg11.dtd">
<svg fill='white' version="1.1" xmlns="http://www.w3.org/2000/svg" xmlns:xlink="http://www.w3.org/1999/xlink" x="0px" y="0px" viewBox="0 0 1000 1000" enable-background="new 0 0 1000 1000" xml:space="preserve">
<metadata> Svg Vector Icons : http://www.onlinewebfonts.com/icon </metadata>
<g><g transform="translate(0.000000,511.000000) scale(0.100000,-0.100000)"><path d="M4638.7,4428.4c-186.4-86-344.1-243.7-430.1-430.1c-57.3-123.3-88.9-249.5-60.2-246.6c2.9,0,109,20.1,235.1,43c126.2,22.9,404.3,40.1,616.5,40.1c212.2,0,490.3-17.2,616.5-40.1c126.2-22.9,232.3-43,238-43c25.8-2.9-5.7,123.3-63.1,246.6c-149.1,321.1-433,498.9-791.4,498.9C4833.7,4497.2,4750.5,4480,4638.7,4428.4z"/><path d="M4698.9,3619.9c-421.5-45.9-911.8-186.4-1250.1-355.5c-289.6-149.1-688.1-433-929-670.9C1926.3,2008.5,1502,1188.4,1373,371.3l-20.1-126.2l152,91.7c731.1,438.7,1671.6,679.5,2944.6,748.3c1605.6,91.8,3108.1-186.4,4045.7-748.3l152-91.7L8627,371.3c-126.2,802.8-541.9,1611.4-1121.1,2193.4c-516.1,513.2-1172.7,871.6-1846.5,997.8C5415.8,3608.4,4893.9,3639.9,4698.9,3619.9z"/><path d="M4340.5,867.3c-1101-94.6-1840.8-266.6-2448.6-573.4C1545,119,1329.9-38.7,1083.4-299.6c-235.1-246.6-378.5-487.4-476-794.2c-60.2-200.7-65.9-260.9-65.9-917.5c0-691,2.9-705.3,80.3-934.7c209.3-625.1,768.4-1138.3,1396.3-1287.4c220.8-51.6,1367.7-60.2,1577-11.5c326.9,74.6,745.5,378.5,1020.7,745.5c131.9,172,223.6,226.5,384.2,226.5c160.6,0,252.3-54.5,384.2-226.5c275.2-367,693.9-670.9,1020.7-745.5c209.3-48.7,1356.2-40.1,1577,11.5c627.9,149.1,1184.2,659.5,1396.3,1287.4c80.3,229.4,80.3,240.8,80.3,949c0,705.3-2.9,719.7-80.3,949c-134.8,404.3-490.3,854.5-883.1,1124c-519,352.7-1327.5,616.5-2265.1,736.9C5920.4,855.8,4618.7,890.3,4340.5,867.3z M6060.9,379.9c1697.4-189.2,2741.1-808.6,2938.9-1746.1c54.5-266.7,57.3-1020.7,0-1284.5c-114.7-550.5-562-1009.3-1118.2-1152.6c-238-60.2-1204.2-60.2-1410.7,0c-232.2,68.8-475.9,252.3-702.5,524.7c-238,292.5-332.6,361.3-559.1,421.5c-195,51.6-392.8,34.4-576.3-48.8c-143.4-68.8-223.7-143.4-441.6-415.7c-186.4-229.4-441.6-415.8-662.3-481.7c-206.4-60.2-1172.7-60.2-1410.7,0c-556.2,143.4-1003.5,602.1-1118.2,1152.6c-57.3,263.8-54.5,1017.9,0,1284.5c86,401.4,332.6,759.8,713.9,1032.2C2600.1,293.9,4303.3,572,6060.9,379.9z"/><path d="M4326.2-93.2C3552-141.9,2812.3-314,2313.4-554.8c-321.1-154.8-605-418.6-731.1-676.7l-94.6-192.1v-573.4c0-562,2.9-576.3,77.4-736.9c100.4-215,272.4-395.7,473.1-498.9c163.4-83.2,174.9-83.2,711.1-91.8c349.8-5.7,584.9,0,653.7,22.9c134.8,40.2,263.8,152,510.4,447.3C4231.6-2473,4544.1-2321,5000-2321c453,0,797.1-169.2,1083.8-530.4c203.6-252.3,381.4-412.9,513.2-450.2c71.7-22.9,298.2-28.7,653.7-22.9c501.8,8.6,556.2,14.3,679.5,77.4c215,106.1,384.2,272.4,487.4,484.5c91.8,186.4,94.6,197.9,106.1,645.1c14.3,725.4-54.5,943.3-401.4,1264.5C7666.5-431.6,6792-167.8,5602.1-93.2C5077.4-58.8,4871-58.8,4326.2-93.2z M3451.7-850.2l68.8-74.5L2964.3-1481c-306.8-306.8-570.6-559.1-584.9-559.1s-57.3,28.7-94.6,63.1l-68.8,63.1l567.7,567.7c312.5,312.5,573.4,567.7,584.9,567.7C3377.1-778.5,3414.4-810,3451.7-850.2z M2591.5-993.5l68.8-74.5l-278.1-278.1l-278.1-278.1l-77.4,80.3l-80.3,77.4l272.4,272.4c149.1,149.1,278.1,272.4,289.6,272.4C2517-921.8,2554.3-953.4,2591.5-993.5z"/><path d="M257.6-1369.1C108.5-1521.1,54-1911,142.9-2209.2c43-146.2,146.2-289.6,212.2-289.6c17.2,0,28.7,203.6,28.7,602.1c0,332.6-11.5,602.1-25.8,602.1C346.5-1294.6,300.6-1329,257.6-1369.1z"/><path d="M9616.2-1896.7c0-398.6,11.5-602.1,28.7-602.1c65.9,0,169.2,143.4,212.2,289.6c88.9,298.2,34.4,688.1-114.7,840.1c-43,40.1-88.9,74.5-100.4,74.5C9627.7-1294.6,9616.2-1564.1,9616.2-1896.7z"/></g></g>
</svg>